ffmpeg version git-2026-04-19-de18feb Copyright (c) 2000-2026 the FFmpeg developers
  built with gcc 9 (Ubuntu 9.4.0-1ubuntu1~20.04.2)
  configuration: --enable-shared --enable-gpl --enable-libx264
  libavutil      60. 30.100 / 60. 30.100
  libavcodec     62. 30.100 / 62. 30.100
  libavformat    62. 13.102 / 62. 13.102
  libavdevice    62.  4.100 / 62.  4.100
  libavfilter    11. 15.101 / 11. 15.101
  libswscale      9.  7.100 /  9.  7.100
  libswresample   6.  4.100 /  6.  4.100
[in#0/x11grab @ 0x56396c721c40] Stream #0: not enough frames to estimate rate; consider increasing probesize
Input #0, x11grab, from ':0.0+0,0':
  Duration: N/A, start: 1777368882.547608, bitrate: 3678192 kb/s
  Stream #0:0: Video: rawvideo (BGR[0] / 0x524742), bgr0, 2870x1602, 3678192 kb/s, 25 fps, 1000k tbr, 1000k tbn, start 1777368882.547608
Stream mapping:
  Stream #0:0 -> #0:0 (rawvideo (native) -> h264 (libx264))
[libx264 @ 0x56396c72ff00] using cpu capabilities: MMX2 SSE2Fast SSSE3 SSE4.2 AVX FMA3 BMI2 AVX2
[libx264 @ 0x56396c72ff00] profile High, level 5.0
[libx264 @ 0x56396c72ff00] 264 - core 155 r2917 0a84d98 - H.264/MPEG-4 AVC codec - Copyleft 2003-2018 - http://www.videolan.org/x264.html - options: cabac=1 ref=1 deblock=1:0:0 analyse=0x3:0x113 me=hex subme=2 psy=1 psy_rd=1.00:0.00 mixed_ref=0 me_range=16 chroma_me=1 trellis=0 8x8dct=1 cqm=0 deadzone=21,11 fast_pskip=1 chroma_qp_offset=0 threads=6 lookahead_threads=2 sliced_threads=0 nr=0 decimate=1 interlaced=0 bluray_compat=0 constrained_intra=0 bframes=3 b_pyramid=2 b_adapt=1 b_bias=0 direct=1 weightb=1 open_gop=0 weightp=1 keyint=250 keyint_min=25 scenecut=40 intra_refresh=0 rc_lookahead=10 rc=crf mbtree=1 crf=23.0 qcomp=0.60 qpmin=0 qpmax=69 qpstep=4 ip_ratio=1.40 aq=1:1.00
Output #0, matroska, to '/home/lmy/catkin_ws/recordings_tmp/exp_10_segment/screen.mkv':
  Metadata:
    encoder         : Lavf62.13.102
  Stream #0:0: Video: h264 (H264 / 0x34363248), yuv420p(tv, progressive), 2870x1602, q=2-31, 25 fps, 1k tbn
    Metadata:
      encoder         : Lavc62.30.100 libx264
    Side data:
      CPB properties: bitrate max/min/avg: 0/0/0 buffer size: 0 vbv_delay: N/A
frame=    0 fps=0.0 q=0.0 size=       0KiB time=N/A bitrate=N/A speed=N/A elapsed=0:00:00.50    frame=    6 fps=6.0 q=28.0 size=       1KiB time=00:00:00.16 bitrate=  29.7kbits/s speed=0.16x elapsed=0:00:01.00    frame=   18 fps= 12 q=28.0 size=       1KiB time=00:00:00.64 bitrate=   7.4kbits/s speed=0.426x elapsed=0:00:01.50    frame=   31 fps= 15 q=28.0 size=       1KiB time=00:00:01.16 bitrate=   4.1kbits/s speed=0.58x elapsed=0:00:02.00    frame=   43 fps= 17 q=28.0 size=       1KiB time=00:00:01.64 bitrate=   2.9kbits/s speed=0.656x elapsed=0:00:02.50    frame=   56 fps= 19 q=28.0 size=       1KiB time=00:00:02.16 bitrate=   2.2kbits/s speed=0.72x elapsed=0:00:03.00    frame=   68 fps= 19 q=28.0 size=       1KiB time=00:00:02.64 bitrate=   1.8kbits/s speed=0.754x elapsed=0:00:03.50    frame=   81 fps= 20 q=28.0 size=       1KiB time=00:00:03.16 bitrate=   1.5kbits/s speed=0.79x elapsed=0:00:04.00    frame=   93 fps= 21 q=28.0 size=       1KiB time=00:00:03.64 bitrate=   1.3kbits/s speed=0.808x elapsed=0:00:04.50    frame=  106 fps= 21 q=28.0 size=       1KiB time=00:00:04.16 bitrate=   1.1kbits/s speed=0.832x elapsed=0:00:05.00    frame=  119 fps= 22 q=28.0 size=       1KiB time=00:00:04.72 bitrate=   1.0kbits/s speed=0.857x elapsed=0:00:05.50    frame=  131 fps= 22 q=28.0 size=     169KiB time=00:00:05.16 bitrate= 268.2kbits/s speed=0.859x elapsed=0:00:06.00    frame=  144 fps= 22 q=28.0 size=     169KiB time=00:00:05.68 bitrate= 243.7kbits/s speed=0.873x elapsed=0:00:06.50    frame=  156 fps= 22 q=28.0 size=     169KiB time=00:00:06.16 bitrate= 224.7kbits/s speed=0.879x elapsed=0:00:07.00    frame=  169 fps= 23 q=28.0 size=     169KiB time=00:00:06.72 bitrate= 206.0kbits/s speed=0.895x elapsed=0:00:07.50    frame=  181 fps= 23 q=28.0 size=     169KiB time=00:00:07.16 bitrate= 193.3kbits/s speed=0.894x elapsed=0:00:08.00    frame=  193 fps= 23 q=28.0 size=     169KiB time=00:00:07.68 bitrate= 180.2kbits/s speed=0.903x elapsed=0:00:08.50    frame=  206 fps= 23 q=28.0 size=     169KiB time=00:00:08.16 bitrate= 169.6kbits/s speed=0.906x elapsed=0:00:09.00    frame=  218 fps= 23 q=28.0 size=     169KiB time=00:00:08.68 bitrate= 159.4kbits/s speed=0.913x elapsed=0:00:09.50    frame=  231 fps= 23 q=28.0 size=     169KiB time=00:00:09.16 bitrate= 151.1kbits/s speed=0.915x elapsed=0:00:10.00    frame=  243 fps= 23 q=28.0 size=     169KiB time=00:00:09.64 bitrate= 143.6kbits/s speed=0.917x elapsed=0:00:10.51    frame=  256 fps= 23 q=28.0 size=     254KiB time=00:00:10.16 bitrate= 204.7kbits/s speed=0.923x elapsed=0:00:11.01    frame=  269 fps= 23 q=28.0 size=     254KiB time=00:00:10.68 bitrate= 194.7kbits/s speed=0.928x elapsed=0:00:11.51    frame=  281 fps= 23 q=28.0 size=     254KiB time=00:00:11.16 bitrate= 186.4kbits/s speed=0.929x elapsed=0:00:12.01    frame=  294 fps= 23 q=28.0 size=     254KiB time=00:00:11.68 bitrate= 178.1kbits/s speed=0.933x elapsed=0:00:12.51    frame=  306 fps= 24 q=28.0 size=     254KiB time=00:00:12.16 bitrate= 171.0kbits/s speed=0.934x elapsed=0:00:13.01    frame=  319 fps= 24 q=28.0 size=     254KiB time=00:00:12.68 bitrate= 164.0kbits/s speed=0.938x elapsed=0:00:13.51    frame=  331 fps= 24 q=28.0 size=     254KiB time=00:00:13.16 bitrate= 158.0kbits/s speed=0.939x elapsed=0:00:14.01    frame=  344 fps= 24 q=28.0 size=     254KiB time=00:00:13.72 bitrate= 151.6kbits/s speed=0.945x elapsed=0:00:14.51    frame=  356 fps= 24 q=28.0 size=     254KiB time=00:00:14.20 bitrate= 146.5kbits/s speed=0.945x elapsed=0:00:15.02    frame=  369 fps= 24 q=28.0 size=     254KiB time=00:00:14.72 bitrate= 141.3kbits/s speed=0.948x elapsed=0:00:15.52    frame=  381 fps= 24 q=28.0 size=     256KiB time=00:00:15.20 bitrate= 138.0kbits/s speed=0.949x elapsed=0:00:16.02    frame=  394 fps= 24 q=28.0 size=     256KiB time=00:00:15.68 bitrate= 133.7kbits/s speed=0.949x elapsed=0:00:16.52    frame=  406 fps= 24 q=28.0 size=     256KiB time=00:00:16.20 bitrate= 129.5kbits/s speed=0.952x elapsed=0:00:17.02    frame=  419 fps= 24 q=28.0 size=     256KiB time=00:00:16.68 bitrate= 125.7kbits/s speed=0.952x elapsed=0:00:17.52    frame=  431 fps= 24 q=28.0 size=     256KiB time=00:00:17.16 bitrate= 122.2kbits/s speed=0.952x elapsed=0:00:18.02    frame=  444 fps= 24 q=28.0 size=     256KiB time=00:00:17.68 bitrate= 118.6kbits/s speed=0.955x elapsed=0:00:18.52    frame=  457 fps= 24 q=28.0 size=     256KiB time=00:00:18.20 bitrate= 115.2kbits/s speed=0.957x elapsed=0:00:19.02    frame=  469 fps= 24 q=28.0 size=     256KiB time=00:00:18.68 bitrate= 112.3kbits/s speed=0.957x elapsed=0:00:19.52    frame=  481 fps= 24 q=28.0 size=     256KiB time=00:00:19.20 bitrate= 109.2kbits/s speed=0.959x elapsed=0:00:20.02    frame=  494 fps= 24 q=28.0 size=     256KiB time=00:00:19.72 bitrate= 106.3kbits/s speed=0.961x elapsed=0:00:20.52    frame=  507 fps= 24 q=28.0 size=     256KiB time=00:00:20.24 bitrate= 103.6kbits/s speed=0.963x elapsed=0:00:21.02    frame=  519 fps= 24 q=28.0 size=     256KiB time=00:00:20.72 bitrate= 101.2kbits/s speed=0.962x elapsed=0:00:21.52    frame=  531 fps= 24 q=28.0 size=     256KiB time=00:00:21.16 bitrate=  99.1kbits/s speed=0.961x elapsed=0:00:22.02    frame=  544 fps= 24 q=28.0 size=     256KiB time=00:00:21.72 bitrate=  96.6kbits/s speed=0.964x elapsed=0:00:22.52    frame=  557 fps= 24 q=28.0 size=     256KiB time=00:00:22.20 bitrate=  94.5kbits/s speed=0.964x elapsed=0:00:23.02    frame=  569 fps= 24 q=28.0 size=     256KiB time=00:00:22.72 bitrate=  92.3kbits/s speed=0.966x elapsed=0:00:23.52    frame=  581 fps= 24 q=28.0 size=     256KiB time=00:00:23.16 bitrate=  90.6kbits/s speed=0.964x elapsed=0:00:24.03    frame=  594 fps= 24 q=28.0 size=     256KiB time=00:00:23.72 bitrate=  88.4kbits/s speed=0.967x elapsed=0:00:24.53    frame=  607 fps= 24 q=28.0 size=     256KiB time=00:00:24.24 bitrate=  86.5kbits/s speed=0.968x elapsed=0:00:25.03    frame=  619 fps= 24 q=28.0 size=     256KiB time=00:00:24.72 bitrate=  84.8kbits/s speed=0.968x elapsed=0:00:25.53    frame=  632 fps= 24 q=28.0 size=     512KiB time=00:00:25.24 bitrate= 166.2kbits/s speed=0.97x elapsed=0:00:26.03    frame=  644 fps= 24 q=28.0 size=     512KiB time=00:00:25.72 bitrate= 163.1kbits/s speed=0.969x elapsed=0:00:26.53    frame=  657 fps= 24 q=28.0 size=     512KiB time=00:00:26.20 bitrate= 160.1kbits/s speed=0.969x elapsed=0:00:27.03    frame=  669 fps= 24 q=28.0 size=     512KiB time=00:00:26.72 bitrate= 157.0kbits/s speed=0.97x elapsed=0:00:27.53    frame=  681 fps= 24 q=28.0 size=     512KiB time=00:00:27.20 bitrate= 154.2kbits/s speed=0.97x elapsed=0:00:28.03    frame=  694 fps= 24 q=28.0 size=     512KiB time=00:00:27.68 bitrate= 151.5kbits/s speed=0.97x elapsed=0:00:28.53    frame=  707 fps= 24 q=28.0 size=     512KiB time=00:00:28.20 bitrate= 148.7kbits/s speed=0.971x elapsed=0:00:29.03    frame=  719 fps= 24 q=28.0 size=     512KiB time=00:00:28.72 bitrate= 146.0kbits/s speed=0.972x elapsed=0:00:29.53    frame=  732 fps= 24 q=28.0 size=     512KiB time=00:00:29.20 bitrate= 143.6kbits/s speed=0.972x elapsed=0:00:30.03    frame=  744 fps= 24 q=28.0 size=     512KiB time=00:00:29.72 bitrate= 141.1kbits/s speed=0.973x elapsed=0:00:30.53    frame=  757 fps= 24 q=28.0 size=     768KiB time=00:00:30.20 bitrate= 208.3kbits/s speed=0.973x elapsed=0:00:31.03    frame=  769 fps= 24 q=28.0 size=     768KiB time=00:00:30.68 bitrate= 205.1kbits/s speed=0.973x elapsed=0:00:31.53    frame=  782 fps= 24 q=28.0 size=     768KiB time=00:00:31.24 bitrate= 201.4kbits/s speed=0.975x elapsed=0:00:32.03    frame=  794 fps= 24 q=28.0 size=     768KiB time=00:00:31.68 bitrate= 198.6kbits/s speed=0.974x elapsed=0:00:32.53    frame=  807 fps= 24 q=28.0 size=     768KiB time=00:00:32.24 bitrate= 195.1kbits/s speed=0.976x elapsed=0:00:33.03    frame=  819 fps= 24 q=28.0 size=     768KiB time=00:00:32.68 bitrate= 192.5kbits/s speed=0.974x elapsed=0:00:33.53    frame=  832 fps= 24 q=28.0 size=     768KiB time=00:00:33.24 bitrate= 189.3kbits/s speed=0.977x elapsed=0:00:34.03    frame=  844 fps= 24 q=28.0 size=     768KiB time=00:00:33.68 bitrate= 186.8kbits/s speed=0.975x elapsed=0:00:34.54    frame=  857 fps= 24 q=28.0 size=     768KiB time=00:00:34.20 bitrate= 184.0kbits/s speed=0.976x elapsed=0:00:35.04    frame=  869 fps= 24 q=28.0 size=     768KiB time=00:00:34.68 bitrate= 181.4kbits/s speed=0.976x elapsed=0:00:35.54    frame=  882 fps= 24 q=28.0 size=     768KiB time=00:00:35.24 bitrate= 178.5kbits/s speed=0.978x elapsed=0:00:36.04    frame=  894 fps= 24 q=28.0 size=     768KiB time=00:00:35.68 bitrate= 176.3kbits/s speed=0.976x elapsed=0:00:36.54    frame=  907 fps= 24 q=28.0 size=     768KiB time=00:00:36.20 bitrate= 173.8kbits/s speed=0.977x elapsed=0:00:37.04    frame=  919 fps= 24 q=28.0 size=     768KiB time=00:00:36.68 bitrate= 171.5kbits/s speed=0.977x elapsed=0:00:37.54    frame=  932 fps= 24 q=28.0 size=     768KiB time=00:00:37.24 bitrate= 168.9kbits/s speed=0.979x elapsed=0:00:38.04    frame=  945 fps= 25 q=28.0 size=     768KiB time=00:00:37.76 bitrate= 166.6kbits/s speed=0.98x elapsed=0:00:38.54    frame=  957 fps= 25 q=28.0 size=     768KiB time=00:00:38.24 bitrate= 164.5kbits/s speed=0.979x elapsed=0:00:39.04    frame=  969 fps= 25 q=28.0 size=     768KiB time=00:00:38.68 bitrate= 162.7kbits/s speed=0.978x elapsed=0:00:39.54    frame=  982 fps= 25 q=28.0 size=     768KiB time=00:00:39.20 bitrate= 160.5kbits/s speed=0.979x elapsed=0:00:40.04    frame=  995 fps= 25 q=28.0 size=     768KiB time=00:00:39.76 bitrate= 158.2kbits/s speed=0.981x elapsed=0:00:40.55    frame= 1007 fps= 25 q=28.0 size=    1024KiB time=00:00:40.20 bitrate= 208.7kbits/s speed=0.979x elapsed=0:00:41.05    frame= 1020 fps= 25 q=28.0 size=    1024KiB time=00:00:40.72 bitrate= 206.0kbits/s speed=0.98x elapsed=0:00:41.55    frame= 1032 fps= 25 q=28.0 size=    1024KiB time=00:00:41.20 bitrate= 203.6kbits/s speed=0.98x elapsed=0:00:42.05    frame= 1045 fps= 25 q=28.0 size=    1024KiB time=00:00:41.76 bitrate= 200.9kbits/s speed=0.981x elapsed=0:00:42.55    frame= 1057 fps= 25 q=28.0 size=    1024KiB time=00:00:42.20 bitrate= 198.8kbits/s speed=0.98x elapsed=0:00:43.05    frame= 1070 fps= 25 q=28.0 size=    1024KiB time=00:00:42.76 bitrate= 196.2kbits/s speed=0.982x elapsed=0:00:43.55    frame= 1082 fps= 25 q=28.0 size=    1024KiB time=00:00:43.24 bitrate= 194.0kbits/s speed=0.982x elapsed=0:00:44.05    frame= 1095 fps= 25 q=28.0 size=    1024KiB time=00:00:43.72 bitrate= 191.9kbits/s speed=0.981x elapsed=0:00:44.55    frame= 1107 fps= 25 q=28.0 size=    1024KiB time=00:00:44.24 bitrate= 189.6kbits/s speed=0.982x elapsed=0:00:45.05    frame= 1120 fps= 25 q=28.0 size=    1024KiB time=00:00:44.72 bitrate= 187.6kbits/s speed=0.982x elapsed=0:00:45.55    frame= 1132 fps= 25 q=28.0 size=    1024KiB time=00:00:45.20 bitrate= 185.6kbits/s speed=0.981x elapsed=0:00:46.05    frame= 1145 fps= 25 q=28.0 size=    1024KiB time=00:00:45.76 bitrate= 183.3kbits/s speed=0.983x elapsed=0:00:46.55    frame= 1157 fps= 25 q=28.0 size=    1024KiB time=00:00:46.20 bitrate= 181.6kbits/s speed=0.982x elapsed=0:00:47.05    frame= 1170 fps= 25 q=28.0 size=    1024KiB time=00:00:46.72 bitrate= 179.6kbits/s speed=0.982x elapsed=0:00:47.55    frame= 1182 fps= 25 q=28.0 size=    1024KiB time=00:00:47.20 bitrate= 177.7kbits/s speed=0.982x elapsed=0:00:48.05    frame= 1195 fps= 25 q=28.0 size=    1024KiB time=00:00:47.72 bitrate= 175.8kbits/s speed=0.983x elapsed=0:00:48.55    frame= 1207 fps= 25 q=28.0 size=    1024KiB time=00:00:48.24 bitrate= 173.9kbits/s speed=0.983x elapsed=0:00:49.05    frame= 1220 fps= 25 q=28.0 size=    1024KiB time=00:00:48.72 bitrate= 172.2kbits/s speed=0.983x elapsed=0:00:49.55    frame= 1232 fps= 25 q=28.0 size=    1024KiB time=00:00:49.24 bitrate= 170.4kbits/s speed=0.984x elapsed=0:00:50.05    frame= 1245 fps= 25 q=28.0 size=    1024KiB time=00:00:49.72 bitrate= 168.7kbits/s speed=0.983x elapsed=0:00:50.55    frame= 1257 fps= 25 q=28.0 size=    1280KiB time=00:00:50.20 bitrate= 208.9kbits/s speed=0.983x elapsed=0:00:51.05    frame= 1270 fps= 25 q=28.0 size=    1280KiB time=00:00:50.72 bitrate= 206.7kbits/s speed=0.984x elapsed=0:00:51.55    frame= 1282 fps= 25 q=28.0 size=    1280KiB time=00:00:51.24 bitrate= 204.6kbits/s speed=0.984x elapsed=0:00:52.05    frame= 1295 fps= 25 q=28.0 size=    1280KiB time=00:00:51.72 bitrate= 202.7kbits/s speed=0.984x elapsed=0:00:52.55    frame= 1307 fps= 25 q=28.0 size=    1280KiB time=00:00:52.20 bitrate= 200.9kbits/s speed=0.984x elapsed=0:00:53.05    frame= 1320 fps= 25 q=28.0 size=    1280KiB time=00:00:52.76 bitrate= 198.7kbits/s speed=0.985x elapsed=0:00:53.55    frame= 1332 fps= 25 q=28.0 size=    1280KiB time=00:00:53.20 bitrate= 197.1kbits/s speed=0.984x elapsed=0:00:54.05    frame= 1345 fps= 25 q=28.0 size=    1280KiB time=00:00:53.76 bitrate= 195.0kbits/s speed=0.985x elapsed=0:00:54.55    frame= 1357 fps= 25 q=28.0 size=    1280KiB time=00:00:54.24 bitrate= 193.3kbits/s speed=0.985x elapsed=0:00:55.06    frame= 1370 fps= 25 q=28.0 size=    1280KiB time=00:00:54.72 bitrate= 191.6kbits/s speed=0.985x elapsed=0:00:55.56    frame= 1382 fps= 25 q=28.0 size=    1280KiB time=00:00:55.20 bitrate= 190.0kbits/s speed=0.985x elapsed=0:00:56.06    frame= 1395 fps= 25 q=28.0 size=    1280KiB time=00:00:55.76 bitrate= 188.1kbits/s speed=0.986x elapsed=0:00:56.56    frame= 1407 fps= 25 q=28.0 size=    1280KiB time=00:00:56.20 bitrate= 186.6kbits/s speed=0.985x elapsed=0:00:57.06    frame= 1420 fps= 25 q=28.0 size=    1280KiB time=00:00:56.72 bitrate= 184.9kbits/s speed=0.985x elapsed=0:00:57.56    frame= 1432 fps= 25 q=28.0 size=    1280KiB time=00:00:57.20 bitrate= 183.3kbits/s speed=0.985x elapsed=0:00:58.06    frame= 1445 fps= 25 q=28.0 size=    1280KiB time=00:00:57.76 bitrate= 181.5kbits/s speed=0.986x elapsed=0:00:58.56    frame= 1457 fps= 25 q=28.0 size=    1280KiB time=00:00:58.20 bitrate= 180.2kbits/s speed=0.985x elapsed=0:00:59.06    frame= 1470 fps= 25 q=28.0 size=    1280KiB time=00:00:58.76 bitrate= 178.5kbits/s speed=0.986x elapsed=0:00:59.56    frame= 1483 fps= 25 q=28.0 size=    1280KiB time=00:00:59.24 bitrate= 177.0kbits/s speed=0.986x elapsed=0:01:00.06    frame= 1495 fps= 25 q=28.0 size=    1280KiB time=00:00:59.72 bitrate= 175.6kbits/s speed=0.986x elapsed=0:01:00.56    frame= 1508 fps= 25 q=28.0 size=    1536KiB time=00:01:00.24 bitrate= 208.9kbits/s speed=0.986x elapsed=0:01:01.06    frame= 1520 fps= 25 q=28.0 size=    1536KiB time=00:01:00.72 bitrate= 207.2kbits/s speed=0.986x elapsed=0:01:01.56    frame= 1532 fps= 25 q=28.0 size=    1536KiB time=00:01:01.24 bitrate= 205.5kbits/s speed=0.987x elapsed=0:01:02.06    frame= 1545 fps= 25 q=28.0 size=    1536KiB time=00:01:01.72 bitrate= 203.9kbits/s speed=0.986x elapsed=0:01:02.56    frame= 1557 fps= 25 q=28.0 size=    1536KiB time=00:01:02.20 bitrate= 202.3kbits/s speed=0.986x elapsed=0:01:03.06    frame= 1570 fps= 25 q=28.0 size=    1536KiB time=00:01:02.76 bitrate= 200.5kbits/s speed=0.987x elapsed=0:01:03.56    frame= 1583 fps= 25 q=28.0 size=    1536KiB time=00:01:03.28 bitrate= 198.8kbits/s speed=0.988x elapsed=0:01:04.06    frame= 1595 fps= 25 q=28.0 size=    1536KiB time=00:01:03.76 bitrate= 197.3kbits/s speed=0.987x elapsed=0:01:04.56    frame= 1608 fps= 25 q=28.0 size=    1536KiB time=00:01:04.24 bitrate= 195.9kbits/s speed=0.987x elapsed=0:01:05.06    frame= 1620 fps= 25 q=28.0 size=    1536KiB time=00:01:04.72 bitrate= 194.4kbits/s speed=0.987x elapsed=0:01:05.56    frame= 1633 fps= 25 q=28.0 size=    1536KiB time=00:01:05.24 bitrate= 192.9kbits/s speed=0.987x elapsed=0:01:06.06    frame= 1645 fps= 25 q=28.0 size=    1536KiB time=00:01:05.72 bitrate= 191.5kbits/s speed=0.987x elapsed=0:01:06.57    frame= 1657 fps= 25 q=28.0 size=    1536KiB time=00:01:06.24 bitrate= 190.0kbits/s speed=0.988x elapsed=0:01:07.07    frame= 1670 fps= 25 q=28.0 size=    1536KiB time=00:01:06.76 bitrate= 188.5kbits/s speed=0.988x elapsed=0:01:07.57    frame= 1683 fps= 25 q=28.0 size=    1536KiB time=00:01:07.24 bitrate= 187.1kbits/s speed=0.988x elapsed=0:01:08.07    frame= 1695 fps= 25 q=28.0 size=    1536KiB time=00:01:07.72 bitrate= 185.8kbits/s speed=0.988x elapsed=0:01:08.57    frame= 1708 fps= 25 q=28.0 size=    1536KiB time=00:01:08.28 bitrate= 184.3kbits/s speed=0.989x elapsed=0:01:09.07    frame= 1720 fps= 25 q=28.0 size=    1536KiB time=00:01:08.76 bitrate= 183.0kbits/s speed=0.988x elapsed=0:01:09.57    frame= 1733 fps= 25 q=28.0 size=    1536KiB time=00:01:09.24 bitrate= 181.7kbits/s speed=0.988x elapsed=0:01:10.07    frame= 1745 fps= 25 q=28.0 size=    1536KiB time=00:01:09.72 bitrate= 180.5kbits/s speed=0.988x elapsed=0:01:10.57    frame= 1758 fps= 25 q=28.0 size=    1792KiB time=00:01:10.24 bitrate= 209.0kbits/s speed=0.988x elapsed=0:01:11.07    frame= 1770 fps= 25 q=28.0 size=    1792KiB time=00:01:10.72 bitrate= 207.6kbits/s speed=0.988x elapsed=0:01:11.57    frame= 1783 fps= 25 q=28.0 size=    1792KiB time=00:01:11.24 bitrate= 206.1kbits/s speed=0.988x elapsed=0:01:12.07    frame= 1795 fps= 25 q=28.0 size=    1792KiB time=00:01:11.72 bitrate= 204.7kbits/s speed=0.988x elapsed=0:01:12.57    frame= 1808 fps= 25 q=28.0 size=    1792KiB time=00:01:12.28 bitrate= 203.1kbits/s speed=0.989x elapsed=0:01:13.07    frame= 1820 fps= 25 q=28.0 size=    1792KiB time=00:01:12.72 bitrate= 201.9kbits/s speed=0.988x elapsed=0:01:13.57    frame= 1833 fps= 25 q=28.0 size=    1792KiB time=00:01:13.28 bitrate= 200.3kbits/s speed=0.989x elapsed=0:01:14.07    frame= 1845 fps= 25 q=28.0 size=    1792KiB time=00:01:13.76 bitrate= 199.0kbits/s speed=0.989x elapsed=0:01:14.58    frame= 1858 fps= 25 q=28.0 size=    1792KiB time=00:01:14.24 bitrate= 197.7kbits/s speed=0.989x elapsed=0:01:15.08    frame= 1871 fps= 25 q=28.0 size=    1792KiB time=00:01:14.80 bitrate= 196.3kbits/s speed=0.99x elapsed=0:01:15.58    frame= 1883 fps= 25 q=28.0 size=    1792KiB time=00:01:15.28 bitrate= 195.0kbits/s speed=0.989x elapsed=0:01:16.09    frame= 1896 fps= 25 q=28.0 size=    1792KiB time=00:01:15.80 bitrate= 193.7kbits/s speed=0.99x elapsed=0:01:16.59    frame= 1908 fps= 25 q=28.0 size=    1792KiB time=00:01:16.28 bitrate= 192.4kbits/s speed=0.989x elapsed=0:01:17.09    frame= 1921 fps= 25 q=28.0 size=    1792KiB time=00:01:16.76 bitrate= 191.2kbits/s speed=0.989x elapsed=0:01:17.59    frame= 1933 fps= 25 q=28.0 size=    1792KiB time=00:01:17.28 bitrate= 190.0kbits/s speed=0.99x elapsed=0:01:18.09    frame= 1946 fps= 25 q=28.0 size=    1792KiB time=00:01:17.76 bitrate= 188.8kbits/s speed=0.989x elapsed=0:01:18.59    frame= 1958 fps= 25 q=28.0 size=    1792KiB time=00:01:18.24 bitrate= 187.6kbits/s speed=0.989x elapsed=0:01:19.09    frame= 1971 fps= 25 q=28.0 size=    1792KiB time=00:01:18.80 bitrate= 186.3kbits/s speed=0.99x elapsed=0:01:19.59    frame= 1983 fps= 25 q=28.0 size=    1792KiB time=00:01:19.24 bitrate= 185.3kbits/s speed=0.989x elapsed=0:01:20.09    frame= 1996 fps= 25 q=25.0 size=    1792KiB time=00:01:19.76 bitrate= 184.1kbits/s speed=0.99x elapsed=0:01:20.59    frame= 2008 fps= 25 q=28.0 size=    1792KiB time=00:01:20.24 bitrate= 183.0kbits/s speed=0.989x elapsed=0:01:21.09    frame= 2021 fps= 25 q=28.0 size=    1792KiB time=00:01:20.76 bitrate= 181.8kbits/s speed=0.99x elapsed=0:01:21.59    frame= 2033 fps= 25 q=28.0 size=    1792KiB time=00:01:21.28 bitrate= 180.6kbits/s speed=0.99x elapsed=0:01:22.09    frame= 2046 fps= 25 q=28.0 size=    1792KiB time=00:01:21.76 bitrate= 179.6kbits/s speed=0.99x elapsed=0:01:22.59    frame= 2058 fps= 25 q=28.0 size=    1792KiB time=00:01:22.28 bitrate= 178.4kbits/s speed=0.99x elapsed=0:01:23.09    frame= 2071 fps= 25 q=28.0 size=    1792KiB time=00:01:22.76 bitrate= 177.4kbits/s speed=0.99x elapsed=0:01:23.60    frame= 2083 fps= 25 q=28.0 size=    1792KiB time=00:01:23.28 bitrate= 176.3kbits/s speed=0.99x elapsed=0:01:24.10    frame= 2095 fps= 25 q=28.0 size=    1792KiB time=00:01:23.72 bitrate= 175.3kbits/s speed=0.99x elapsed=0:01:24.60    frame= 2108 fps= 25 q=28.0 size=    1792KiB time=00:01:24.28 bitrate= 174.2kbits/s speed=0.99x elapsed=0:01:25.10    frame= 2121 fps= 25 q=28.0 size=    1792KiB time=00:01:24.76 bitrate= 173.2kbits/s speed=0.99x elapsed=0:01:25.60    frame= 2133 fps= 25 q=28.0 size=    2048KiB time=00:01:25.24 bitrate= 196.8kbits/s speed=0.99x elapsed=0:01:26.10    frame= 2146 fps= 25 q=28.0 size=    2048KiB time=00:01:25.76 bitrate= 195.6kbits/s speed=0.99x elapsed=0:01:26.60    frame= 2158 fps= 25 q=28.0 size=    2048KiB time=00:01:26.24 bitrate= 194.5kbits/s speed=0.99x elapsed=0:01:27.10    frame= 2171 fps= 25 q=28.0 size=    2048KiB time=00:01:26.80 bitrate= 193.3kbits/s speed=0.991x elapsed=0:01:27.60    frame= 2183 fps= 25 q=28.0 size=    2048KiB time=00:01:27.24 bitrate= 192.3kbits/s speed=0.99x elapsed=0:01:28.10    frame= 2196 fps= 25 q=28.0 size=    2048KiB time=00:01:27.80 bitrate= 191.1kbits/s speed=0.991x elapsed=0:01:28.60    frame= 2209 fps= 25 q=28.0 size=    2048KiB time=00:01:28.28 bitrate= 190.0kbits/s speed=0.991x elapsed=0:01:29.10    [out#0/matroska @ 0x56396c72e500] Error writing trailer: Immediate exit requested
[out#0/matroska @ 0x56396c72e500] Error closing file: Immediate exit requested
[out#0/matroska @ 0x56396c72e500] video:2716KiB audio:0KiB subtitle:0KiB other streams:0KiB global headers:0KiB muxing overhead: unknown
frame= 2241 fps= 25 q=-1.0 Lsize=    2048KiB time=00:01:29.60 bitrate= 187.2kbits/s speed=0.998x elapsed=0:01:29.82    
[libx264 @ 0x56396c72ff00] frame I:10    Avg QP:11.21  size:119283
[libx264 @ 0x56396c72ff00] frame P:565   Avg QP:18.37  size:  1775
[libx264 @ 0x56396c72ff00] frame B:1666  Avg QP:24.02  size:   351
[libx264 @ 0x56396c72ff00] consecutive B-frames:  0.8%  0.2%  0.1% 98.9%
[libx264 @ 0x56396c72ff00] mb I  I16..4: 88.5%  1.5% 10.0%
[libx264 @ 0x56396c72ff00] mb P  I16..4:  0.2%  0.1%  0.0%  P16..4:  0.3%  0.1%  0.1%  0.0%  0.0%    skip:99.2%
[libx264 @ 0x56396c72ff00] mb B  I16..4:  0.0%  0.0%  0.0%  B16..8:  0.2%  0.1%  0.0%  direct: 0.1%  skip:99.7%  L0:46.0% L1:49.1% BI: 4.9%
[libx264 @ 0x56396c72ff00] 8x8 transform intra:4.2% inter:3.1%
[libx264 @ 0x56396c72ff00] coded y,uvDC,uvAC intra: 13.2% 18.9% 15.3% inter: 0.0% 0.1% 0.0%
[libx264 @ 0x56396c72ff00] i16 v,h,dc,p: 72% 27%  2%  0%
[libx264 @ 0x56396c72ff00] i8 v,h,dc,ddl,ddr,vr,hd,vl,hu: 11% 19% 66%  1%  0%  0%  1%  0%  1%
[libx264 @ 0x56396c72ff00] i4 v,h,dc,ddl,ddr,vr,hd,vl,hu: 32% 28% 21%  3%  3%  5%  3%  4%  3%
[libx264 @ 0x56396c72ff00] i8c dc,h,v,p: 64% 28%  8%  1%
[libx264 @ 0x56396c72ff00] Weighted P-Frames: Y:0.0% UV:0.0%
[libx264 @ 0x56396c72ff00] kb/s:248.06
Exiting normally, received signal 2.
